<svg version="1.2" xmlns="http://www.w3.org/2000/svg" viewBox="0 0 500 449" width="500" height="449"><style>.a{fill:#71bfb8}.b{fill:#fff}.c{fill:none;stroke:#71bfb8;stroke-linecap:round;stroke-miterlimit:10;stroke-width:2}.d{fill:none;stroke:#71bfb8;stroke-linecap:round;stroke-linejoin:round;stroke-width:4}.e{fill:#818181}.f{fill:#cdcdcd}.g{opacity:.4;fill:#fff}.h{fill:#5f5f5f}</style><g style="opacity:.3"><path class="a" d="m250 104c-21.6 0-39-17.5-39-39 0-21.6 17.4-39.1 39-39.1 21.6 0 39 17.5 39 39.1 0 21.5-17.4 39-39 39z"/><path class="b" d="m277.6 79.6c-8.1 15.3-27 21-42.3 12.9-15.2-8.1-21-27-12.9-42.2 8.1-15.3 27-21 42.3-12.9 15.2 8.1 21 27 12.9 42.2z"/><path class="c" d="m250 41.1v-7.4"/><path class="c" d="m250 41.1v-7.4"/><path class="c" d="m266.9 48.1l5.2-5.2"/><path class="c" d="m273.8 65h7.4"/><path class="c" d="m266.9 81.8l5.2 5.2"/><path class="c" d="m250 88.8v7.4"/><path class="c" d="m233.1 81.8l-5.2 5.2"/><path class="c" d="m226.2 65h-7.4"/><path class="c" d="m233.1 48.1l-5.2-5.2"/><path class="d" d="m250 48.1v16.9h10.2"/></g><g style="opacity:.3"><path class="a" d="m460 196.4c0 5.4-4.4 9.8-9.9 9.8h-107.7c-5.5 0-9.9-4.4-9.9-9.8v-146.6c0-5.4 4.4-9.9 9.9-9.9h107.7c5.5 0 9.9 4.5 9.9 9.9z"/><path class="b" d="m342.4 49.8h107.7v146.6h-107.7z"/><path class="a" d="m342.4 115.7h107.7v14.8h-107.7z"/><path class="a" d="m441.4 161c0 5.4 0 35.4 0 35.4h-24.5c0 0 0-30 0-35.4 0-5.5 8.1-5.5 8.1-10.9v-8.2h8.2v8.2c0 5.4 8.2 5.4 8.2 10.9z"/><path class="a" d="m408.5 161c0 5.4 0 35.4 0 35.4h-24.5c0 0 0-30 0-35.4 0-5.5 8.2-5.5 8.2-10.9v-8.2h8.1v8.2c0 5.4 8.2 5.4 8.2 10.9z"/><path class="a" d="m375.6 161c0 5.4 0 35.4 0 35.4h-24.5c0 0 0-30 0-35.4 0-5.5 8.2-5.5 8.2-10.9v-8.2h8.2v8.2c0 5.4 8.1 5.4 8.1 10.9z"/></g><g style="opacity:.3"><path class="a" d="m161.2 194.5c0 6.5-5.3 11.7-11.7 11.7h-97.8c-6.4 0-11.7-5.2-11.7-11.7v-138.5c0-6.4 5.3-11.7 11.7-11.7h97.8c6.4 0 11.7 5.3 11.7 11.7z"/><path class="b" d="m94.6 105.5c-8.3 0-16.7-14.6-31.3-2.1-14.6 12.5 2.1 33.4 2.1 33.4 0 0-4.2 10.4 2.1 22.9 6.2 12.5 12.5 10.4 12.5 10.4 0 0 4.2 0 4.2-4.2 0-4.1-6.3-20.8 10.4-20.8 16.7 0 10.4 16.7 10.4 20.8 0 4.2 4.2 4.2 4.2 4.2 0 0 6.3 2.1 12.5-10.4 6.3-12.5 2.1-22.9 2.1-22.9 0 0 16.7-20.9 2.1-33.4-14.6-12.5-22.9 2.1-31.3 2.1z"/><path class="b" d="m128.2 64.8c-3.9 0-7.9-6.9-14.7-1-6.9 5.9 0.9 15.8 0.9 15.8 0 0-1.9 4.9 1 10.8 3 5.9 5.9 4.9 5.9 4.9 0 0 2 0 2-2 0-1.9-2.9-9.8 4.9-9.8 7.9 0 5 7.9 5 9.8 0 2 1.9 2 1.9 2 0 0 3 1 5.9-4.9 3-5.9 1-10.8 1-10.8 0 0 7.9-9.9 1-15.8-6.9-5.9-10.8 1-14.8 1z"/></g><path class="e" d="m457 340.5c0-4.7-3.8-8.5-8.5-8.5h-86.5c-4.7 0-8.5 3.8-8.5 8.5v87.8c0 4.6 3.8 8.4 8.5 8.4h86.5c4.7 0 8.5-3.8 8.5-8.4z"/><path class="f" d="m463.8 331c0-4.6-3.7-8.3-8.3-8.3h-100.5c-4.5 0-8.3 3.7-8.3 8.3 0 4.6 3.8 8.3 8.3 8.3h100.5c4.6 0 8.3-3.7 8.3-8.3z"/><path class="f" d="m446.6 356.7c0-4.7-3.8-8.4-8.4-8.4h-65.8c-4.7 0-8.5 3.7-8.5 8.4v4.4c0 4.7 3.8 8.4 8.4 8.4h65.9c4.6 0 8.4-3.7 8.4-8.4z"/><g style="opacity:.4"><path class="e" d="m414.1 364.3h-19.8c-1.2 0-2.1-0.9-2.1-2.1 0-1.1 0.9-2.1 2.1-2.1h19.8c1.1 0 2.1 1 2.1 2.1 0 1.2-1 2.1-2.1 2.1z"/></g><path class="f" d="m446.6 385.7c0-4.7-3.8-8.5-8.4-8.5h-65.8c-4.7 0-8.5 3.8-8.5 8.5v4.4c0 4.6 3.8 8.4 8.4 8.4h65.9c4.6 0 8.4-3.8 8.4-8.4z"/><g style="opacity:.4"><path class="e" d="m414.1 393.3h-19.8c-1.2 0-2.1-0.9-2.1-2.1 0-1.2 0.9-2.1 2.1-2.1h19.8c1.1 0 2.1 0.9 2.1 2.1 0 1.2-1 2.1-2.1 2.1z"/></g><path class="f" d="m446.6 414.7c0-4.7-3.8-8.5-8.4-8.5h-65.8c-4.7 0-8.5 3.8-8.5 8.5v4.4c0 4.6 3.8 8.4 8.4 8.4h65.9c4.6 0 8.4-3.8 8.4-8.4z"/><g style="opacity:.4"><path class="e" d="m414.1 422.3h-19.8c-1.2 0-2.1-1-2.1-2.1 0-1.2 0.9-2.1 2.1-2.1h19.8c1.1 0 2.1 0.9 2.1 2.1 0 1.1-1 2.1-2.1 2.1z"/></g><path class="e" d="m448.5 433.1v12.7c0 0 0 4.2-4.2 4.2-4.2 0-14.8-6.3-14.8-16.9z"/><path class="e" d="m362 433.1v12.7c0 0 0 4.2 4.2 4.2 4.3 0 14.8-6.3 14.8-16.9z"/><path class="a" d="m389.2 307.9c0 4.2 0 14.8 0 14.8h-29.6c0 0 0-10.6 0-14.8 0-6.3 6.3-8.4 6.3-8.4h16.9c0 0 6.4 2.1 6.4 8.4z"/><path class="e" d="m389.2 295.2c0-2.3-1.9-4.2-4.3-4.2h-21.1c-2.3 0-4.2 1.9-4.2 4.2 0 2.4 1.9 4.3 4.2 4.3h21.1c2.4 0 4.3-1.9 4.3-4.3z"/><path class="a" d="m446.2 310v12.7h-46.5v-12.7q0-0.5 0.1-1c0.9-7.7 10.9-13.8 23.2-13.8 12.3 0 22.3 6.1 23.2 13.8q0 0.5 0 1z"/><path class="g" d="m446.2 310v4.3h-46.5v-4.3q0-0.5 0.1-1h46.4q0 0.5 0 1z"/><path class="f" d="m256.2 306l-6.1-12.2 59-29.6v-40.1h13.7v44.3c0 2.6-1.5 5-3.8 6.1z"/><path class="e" d="m315.9 280.2c-6.4 0-11.7-5.3-11.7-11.8 0-6.4 5.3-11.7 11.7-11.7 6.5 0 11.8 5.3 11.8 11.7-0.1 6.5-5.3 11.8-11.8 11.8z"/><path class="f" d="m350.3 228.3c0 6.5-5.3 11.7-11.7 11.7h-45.3c-6.5 0-11.7-5.2-11.7-11.7v-48.5c0-6.5 5.2-11.7 11.7-11.7h45.3c6.4 0 11.7 5.2 11.7 11.7z"/><path class="a" d="m293.3 232.2c-2.2 0-3.9-1.8-3.9-3.9v-48.5c0-2.2 1.7-3.9 3.9-3.9h45.3c2.1 0 3.9 1.7 3.9 3.9v48.5c0 2.1-1.8 3.9-3.9 3.9z"/><g style="opacity:.4"><path class="b" d="m315.9 190.2c-4 0-8-7-15-1-7 6 1 16 1 16 0 0-2 5 1 11 3 6 6 5 6 5 0 0 2 0 2-2 0-2-3-10 5-10 8 0 5 8 5 10 0 2 2 2 2 2 0 0 3 1 6-5 3-6 1-11 1-11 0 0 8-10 1-16-7-6-11 1-15 1z"/></g><path class="f" d="m249.6 303.4l-17.5-2.1 15.8-128-54.5-23.8-68.1 41.3-9.1-15 72-43.6c2.4-1.5 5.4-1.7 8.1-0.6l64.7 28.2c3.5 1.5 5.7 5.2 5.2 9.1z"/><path class="e" d="m192.7 153.1c-7.5 0-13.5-6-13.5-13.4 0-7.5 6-13.5 13.5-13.5 7.4 0 13.4 6 13.4 13.5 0 7.4-6 13.4-13.4 13.4z"/><path class="e" d="m120.7 196.8c-7.4 0-13.4-6-13.4-13.4 0-7.4 6-13.5 13.4-13.5 7.5 0 13.5 6.1 13.5 13.5 0 7.4-6 13.4-13.5 13.4z"/><path class="f" d="m120.9 179.3c-14.1-14.2-37-14.2-51.2 0-14.1 14.1 37.1 65.3 51.2 51.2 14.2-14.2 14.2-37.1 0-51.2z"/><path class="e" d="m257.5 181.5c-7.5 0-13.5-6-13.5-13.4 0-7.4 6-13.5 13.5-13.5 7.4 0 13.4 6.1 13.4 13.5 0 7.4-6 13.4-13.4 13.4z"/><path class="f" d="m130.8 369l18.7-32 75.5 44.1-18.8 32z"/><path class="e" d="m302.7 427.9h-130.8c0-29.9 29.3-54.2 65.4-54.2 36.1 0 65.4 24.3 65.4 54.2z"/><path class="a" d="m113.2 438.2c0 5.7 4.7 10.3 10.3 10.3h179.2v-20.6h-179.2c-5.6 0-10.3 4.6-10.3 10.3z"/><path class="a" d="m141.2 338.7c-3.2 0-6.4-1.3-8.7-3.9l-97.2-107.3c-4.4-4.8-4-12.2 0.8-16.5 4.8-4.4 12.2-4 16.6 0.8l97.1 107.3c4.4 4.8 4 12.2-0.8 16.6-2.2 2-5 3-7.8 3z"/><path class="a" d="m265.2 342.9c0 10.8-8.7 19.6-19.5 19.6h-46.1c-10.7 0-19.5-8.8-19.5-19.6v-65.2c0-10.7 8.8-19.5 19.5-19.5h46.1c10.8 0 19.5 8.8 19.5 19.5z"/><path class="f" d="m119.5 331.4c0 0-2.8 45.1 21.7 40.5 24.4-4.7 82.5-25.4 94.3-59.9l-27.9-9.7z"/><path class="h" d="m129.5 339.9c-4.9 0-9.5-3.1-11.1-8-2.1-6.2 1.3-12.8 7.4-14.8l78.2-25.9c2.4-0.8 5-0.8 7.5 0.1l71.3 24.6c6.1 2.1 9.3 8.8 7.2 14.9-2.1 6.1-8.7 9.3-14.9 7.2l-67.5-23.3-74.4 24.6q-1.9 0.6-3.7 0.6z"/><path class="f" d="m125.5 347.5c-2.4 0-4.8-1-6.5-2.9l-97.2-107.3c-3.2-3.6-2.9-9.2 0.7-12.4 3.5-3.3 9.1-3 12.4 0.6l97.1 107.3c3.3 3.6 3 9.2-0.6 12.4-1.7 1.5-3.8 2.3-5.9 2.3z"/><path class="a" d="m143.1 292.8l12.6-5.1 18.7 46.8-12.6 5z"/><path class="e" d="m209.4 282.6v5.6q0 0.6-0.1 1.3c-0.6 5.8-5.6 10.4-11.6 10.4h-47.5c-6 0-11-4.6-11.6-10.4q-0.1-0.7-0.1-1.3v-5.6c0-6.5 5.2-11.8 11.7-11.8h47.5c6.5 0.1 11.7 5.3 11.7 11.8z"/><path class="f" d="m209.3 289.5c-0.6 5.8-5.6 10.4-11.6 10.4h-47.5c-6 0-11-4.6-11.6-10.4 0.6-5.8 5.6-10.4 11.6-10.4h47.5c6 0 11 4.6 11.6 10.4z"/><path class="e" d="m184.7 368.5c0 10.7-8.7 19.5-19.5 19.5h-26.2c-10.8 0-19.5-8.8-19.5-19.5v-17.6c0-10.8 8.7-19.5 19.5-19.5h26.2c10.8 0 19.5 8.7 19.5 19.5z"/><path class="f" d="m158.6 253.9h13.7v19.4h-13.7z"/><path class="e" d="m196.5 244.8c0-7.4-6-13.4-13.4-13.4h-35.4c-7.4 0-13.4 6-13.4 13.4 0 7.4 6 13.4 13.4 13.4h35.4c7.4 0 13.4-6 13.4-13.4z"/><path fill-rule="evenodd" class="a" d="m169.6 212.1v4.4c1.6 6 2.8 22.6 2.8 24.4 0 2.2-1.8 3.9-4 3.9-2.1 0-3.9-1.7-3.9-3.9 0-1.8 1.2-18.4 2.8-24.4v-4.4c-3.8-0.5-6.7-3.8-6.7-7.8 0-4.3 3.5-7.8 7.8-7.8 4.4 0 7.9 3.5 7.9 7.8 0 4-2.9 7.3-6.7 7.8zm4.2-7.8c0-2.9-2.4-5.3-5.4-5.3-2.9 0-5.3 2.4-5.3 5.3 0 3 2.4 5.4 5.3 5.4 3 0 5.4-2.4 5.4-5.4z"/><path class="a" d="m154.4 196.5h-8.3c0 0-1.2 0-1.2 1.2-0.8 0-1.5 0.8-1.8 1.9h-5.1c0 0-1.3 0-1.3 1.3 0 1.3 1.3 1.3 1.3 1.3h5.1c0.3 1.1 1 1.9 1.8 1.9 0 0 0 1.3 1.2 1.3h4.3l-3.5 5.2c-2.2 0.5-4 2.5-4 4.9v28c0 0 0 1.3 1.3 1.3h7.7c0 0 1.2 0 1.2-1.3v-28c0-1.7-0.8-3.2-2.1-4.1l4-6.1c2.2-0.3 3.9-2.1 3.9-4.4 0-2.5-2-4.4-4.5-4.4z"/><path class="a" d="m185.2 212.5c0-2.9 1-4 2-5.1 0.9-0.9 1.8-1.8 1.8-3.7 0-4.4-4.1-6.5-6.3-7-0.4-0.1-0.8 0.2-0.9 0.6 0 0.4 0.2 0.8 0.6 0.9 0.2 0 5.1 1.2 5.1 5.5 0 1.3-0.6 1.9-1.4 2.7-1.1 1.2-2.4 2.6-2.4 6.1-2.4 0.1-2.4 2.5-2.4 2.5v26.3c0 0 0 2.5 2.5 2.5h0.7 0.6c2.5 0 2.5-2.5 2.5-2.5v-26.3c0 0 0-2.4-2.4-2.5z"/></svg>